<?xml version="1.0" encoding="iso-8859-1"?>
<!-- Generator: Adobe Illustrator 19.0.0, SVG Export Plug-In . SVG Version: 6.00 Build 0)  -->
<svg version="1.1" id="Capa_1" xmlns="http://www.w3.org/2000/svg" xmlns:xlink="http://www.w3.org/1999/xlink" x="0px" y="0px"
	 viewBox="0 0 60 60" style="enable-background:new 0 0 60 60;" xml:space="preserve">
<g>
	<g>
		<path d="M59,14.5H35v-8c0-0.6-0.4-1-1-1h-8c-0.6,0-1,0.4-1,1v8H1c-0.6,0-1,0.4-1,1v38c0,0.6,0.4,1,1,1h58c0.6,0,1-0.4,1-1v-38
			C60,14.9,59.6,14.5,59,14.5z M27,7.5h6v12h-6V7.5z M17.1,38.7l-1.6-4.2h3.2L17.1,38.7z M13.3,34.5l2.7,7.1v8.9h2V42l0.1-0.1
			l2.8-7.4H22c2.8,0,5,2.2,5,5v13h-3v-10h-2v10H12v-10h-2v10H7v-13c0-2.8,2.2-5,5-5H13.3z M58,52.5H29v-13c0-3.9-3.1-7-7-7H12
			c-3.9,0-7,3.1-7,7v13H2v-36h23v4c0,0.6,0.4,1,1,1h8c0.6,0,1-0.4,1-1v-4h23V52.5z"/>
		<rect x="29" y="9.5" width="2" height="2"/>
		<path d="M18,18.5h-2c-2.8,0-5,2.2-5,5v3c0,2.8,2.2,5,5,5h2c2.8,0,5-2.2,5-5v-3C23,20.7,20.8,18.5,18,18.5z M21,26.5
			c0,1.7-1.3,3-3,3h-2c-1.7,0-3-1.3-3-3v-3c0-1.7,1.3-3,3-3h2c1.7,0,3,1.3,3,3V26.5z"/>
		<rect x="46" y="20.5" width="9" height="2"/>
		<rect x="36" y="24.5" width="19" height="2"/>
		<rect x="34" y="32.5" width="14" height="2"/>
		<rect x="50" y="32.5" width="5" height="2"/>
		<rect x="51" y="36.5" width="4" height="2"/>
		<polygon points="45,36.5 44,36.5 44,38.5 45,38.5 48,38.5 49,38.5 49,36.5 48,36.5 		"/>
		<rect x="38" y="36.5" width="4" height="2"/>
		<rect x="34" y="42.5" width="14" height="2"/>
		<rect x="50" y="42.5" width="5" height="2"/>
		<rect x="51" y="46.5" width="4" height="2"/>
		<polygon points="45,46.5 44,46.5 44,48.5 45,48.5 48,48.5 49,48.5 49,46.5 48,46.5 		"/>
		<rect x="38" y="46.5" width="4" height="2"/>
	</g>
</g>
<g>
</g>
<g>
</g>
<g>
</g>
<g>
</g>
<g>
</g>
<g>
</g>
<g>
</g>
<g>
</g>
<g>
</g>
<g>
</g>
<g>
</g>
<g>
</g>
<g>
</g>
<g>
</g>
<g>
</g>
</svg>
